<svg xmlns="http://www.w3.org/2000/svg" viewBox="0 0 100 100"><path d="M48.31,62.51c0,2.31.31,3.98.94,5.04.63,1.05,1.72,1.58,3.27,1.58v1.58c-1.55-.15-3.11-.23-4.66-.23-5.21,0-9.57.35-13.08,1.05v-5.41c-2.25,3.76-6.24,5.64-11.95,5.64-4.01,0-6.84-1-8.49-3.01-.75-.9-1.3-2.12-1.65-3.65-.35-1.53-.53-3.54-.53-6.05v-19.17c0-2.3-.31-3.98-.94-5.04-.63-1.05-1.72-1.58-3.27-1.58v-1.58c1.55.15,3.11.23,4.66.23,5.21,0,9.57-.35,13.08-1.05v32.25c0,1.6.29,2.79.86,3.57.58.78,1.52,1.17,2.82,1.17,1.45,0,2.72-.51,3.8-1.54,1.08-1.03,1.62-2.32,1.62-3.87v-22.55c0-2.3-.31-3.98-.94-5.04-.63-1.05-1.72-1.58-3.27-1.58v-1.58c1.55.15,3.11.23,4.66.23,5.21,0,9.57-.35,13.08-1.05v31.65Z"/><path d="M92.88,31.69v1.58c-1.05.35-2.02,1.08-2.89,2.18-.88,1.1-1.69,2.81-2.44,5.11l-9.4,27.96-3.16,9.09c-.9,2.61-2,4.41-3.31,5.41-1.55,1.2-3.88,1.8-6.99,1.8-2.51,0-4.84-.59-6.99-1.77-2.16-1.18-3.23-2.94-3.23-5.3,0-1.75.68-3.16,2.03-4.21,1.35-1.05,3.13-1.58,5.34-1.58s3.76.48,4.96,1.43c1.2.95,1.8,2.33,1.8,4.13,0,1.2-.41,2.34-1.24,3.42-.83,1.08-2.04,1.87-3.65,2.37.5.1,1.35.15,2.56.15,3.46,0,5.84-2,7.14-6.01l.38-1.28-17.51-38.71c-.75-1.7-1.49-2.83-2.22-3.38-.73-.55-1.44-.83-2.14-.83v-1.58c4.01.3,8.09.45,12.25.45,3.26,0,6.89-.15,10.9-.45v1.58c-1.45,0-2.57.1-3.35.3-.78.2-1.17.65-1.17,1.35,0,.4.1.8.3,1.2l9.25,22.02,3.16-9.62c.95-2.91,1.43-5.46,1.43-7.67,0-2.35-.5-4.18-1.5-5.49-1-1.3-2.33-2-3.98-2.1v-1.58c1.85.2,4.48.3,7.89.3,2.86,0,4.79-.1,5.79-.3Z"/></svg>